<?xml version="1.0" encoding="utf-8"?>
<!-- Generator: Adobe Illustrator 26.0.0, SVG Export Plug-In . SVG Version: 6.00 Build 0)  -->
<svg version="1.2" baseProfile="tiny" xmlns="http://www.w3.org/2000/svg" xmlns:xlink="http://www.w3.org/1999/xlink" x="0px"
	 y="0px" viewBox="0 0 1366 768" overflow="visible" xml:space="preserve">
<g id="Layer_3">
	<linearGradient id="SVGID_1_" gradientUnits="userSpaceOnUse" x1="683" y1="-72.1429" x2="683" y2="885.2914">
		<stop  offset="0" style="stop-color:#000000"/>
		<stop  offset="3.581367e-03" style="stop-color:#020604"/>
		<stop  offset="0.0516" style="stop-color:#1C5436"/>
		<stop  offset="0.0912" style="stop-color:#2F8D5B"/>
		<stop  offset="0.1204" style="stop-color:#3BB071"/>
		<stop  offset="0.1361" style="stop-color:#3FBD7A"/>
		<stop  offset="0.6714" style="stop-color:#3FBD7A"/>
		<stop  offset="0.8161" style="stop-color:#216440"/>
		<stop  offset="0.9419" style="stop-color:#091C12"/>
		<stop  offset="1" style="stop-color:#000000"/>
	</linearGradient>
	<rect fill="url(#SVGID_1_)" width="1366" height="768"/>
	<g>
		<polygon fill="#FFFFFF" points="1240,415 796,415 818,353 1262,353 		"/>
		<g>
			<path fill="#3FBE7B" d="M830.64,373.39v25.33h-7.77v-25.33H830.64z"/>
			<path fill="#3FBE7B" d="M830.54,391.38l7.22-1.3c0.61,2.04,2.16,3.06,4.68,3.06c1.95,0,2.93-0.52,2.93-1.56
				c0-0.54-0.23-0.97-0.68-1.27c-0.45-0.3-1.26-0.57-2.42-0.81c-4.44-0.85-7.29-1.96-8.55-3.34c-1.26-1.37-1.89-2.99-1.89-4.84
				c0-2.39,0.91-4.37,2.72-5.96c1.81-1.58,4.42-2.38,7.82-2.38c5.16,0,8.57,2.07,10.22,6.22l-6.44,1.95
				c-0.67-1.69-2.02-2.54-4.06-2.54c-1.7,0-2.54,0.53-2.54,1.58c0,0.47,0.19,0.83,0.58,1.09c0.38,0.26,1.13,0.51,2.23,0.74
				c3.03,0.64,5.18,1.21,6.46,1.7c1.28,0.49,2.34,1.34,3.19,2.53c0.85,1.19,1.28,2.6,1.28,4.22c0,2.56-1.04,4.64-3.12,6.23
				c-2.08,1.59-4.81,2.38-8.18,2.38C835.8,399.1,831.99,396.53,830.54,391.38z"/>
			<path fill="#3FBE7B" d="M882.48,373.39v16.77c0,3.18-0.94,5.46-2.83,6.86c-1.89,1.39-4.34,2.09-7.38,2.09
				c-3.19,0-5.75-0.67-7.69-2c-1.94-1.34-2.9-3.51-2.9-6.53v-17.18h7.9v16.27c0,1.21,0.26,2.1,0.77,2.65s1.33,0.84,2.45,0.84
				c0.94,0,1.71-0.2,2.3-0.6s0.96-0.86,1.07-1.36c0.12-0.51,0.18-1.5,0.18-2.97v-14.83H882.48z"/>
			<path fill="#3FBE7B" d="M906.39,398.71h-6.33l-6.94-11.19c-0.89-1.43-1.79-3.18-2.69-5.23c0.41,1.63,0.61,3.02,0.61,4.16v12.27
				h-6.31v-25.33h7.35l5.9,9.28c1.17,1.84,2.07,3.46,2.67,4.86c-0.4-2.16-0.59-4.38-0.59-6.64v-7.5h6.33V398.71z"/>
			<path fill="#3FBE7B" d="M908.9,398.71v-25.33h9.8c4.25,0,7.44,1.26,9.56,3.79s3.17,5.44,3.17,8.76c0,3.79-1.13,6.86-3.41,9.23
				c-2.27,2.37-5.22,3.55-8.84,3.55H908.9z M916.68,392.89h2.02c1.29,0,2.37-0.62,3.26-1.88c0.88-1.25,1.33-2.95,1.33-5.1
				c0-1.84-0.39-3.43-1.18-4.77c-0.79-1.34-1.92-2-3.41-2h-2.02V392.89z"/>
			<path fill="#3FBE7B" d="M951.87,392.67v6.05h-19.06v-25.33h19.06v5.84h-11.43v3.67h9.24v5.62h-9.24v4.14H951.87z"/>
			<path fill="#3FBE7B" d="M975.59,398.71h-8.62l-3.7-9.69h-2.45v9.69h-7.77v-25.33h13.23c2.92,0,5.19,0.68,6.8,2.05
				c1.61,1.37,2.42,3.17,2.42,5.41c0,1.46-0.3,2.75-0.89,3.87s-1.79,2.11-3.6,2.96L975.59,398.71z M960.82,383.61h3.32
				c0.98,0,1.76-0.2,2.36-0.61s0.89-1.01,0.89-1.8c0-1.62-1-2.43-2.99-2.43h-3.58V383.61z"/>
			<path fill="#3FBE7B" d="M998.9,389.05l7.11,0.43c-0.33,3.1-1.48,5.49-3.44,7.14c-1.96,1.66-4.37,2.49-7.23,2.49
				c-3.44,0-6.22-1.14-8.33-3.41c-2.12-2.28-3.17-5.42-3.17-9.43c0-3.97,1-7.17,3.01-9.61c2-2.44,4.8-3.66,8.39-3.66
				c3.35,0,5.93,0.93,7.73,2.78c1.8,1.86,2.82,4.32,3.05,7.38l-7.25,0.39c0-1.69-0.32-2.92-0.97-3.67
				c-0.65-0.75-1.41-1.13-2.29-1.13c-2.45,0-3.67,2.46-3.67,7.39c0,2.76,0.32,4.63,0.96,5.62c0.64,0.99,1.53,1.48,2.68,1.48
				C997.5,393.24,998.65,391.84,998.9,389.05z"/>
			<path fill="#3FBE7B" d="M1017.89,399.1c-3.56,0-6.47-1.18-8.71-3.54c-2.24-2.36-3.37-5.52-3.37-9.48c0-3.78,1.07-6.91,3.22-9.38
				c2.15-2.47,5.12-3.7,8.93-3.7c3.53,0,6.4,1.16,8.62,3.49c2.22,2.33,3.33,5.43,3.33,9.31c0,4.02-1.12,7.24-3.36,9.67
				C1024.32,397.89,1021.43,399.1,1017.89,399.1z M1017.86,393.35c1.31,0,2.25-0.57,2.83-1.72c0.58-1.14,0.86-3.24,0.86-6.28
				c0-4.4-1.18-6.61-3.54-6.61c-2.55,0-3.82,2.51-3.82,7.53C1014.18,391,1015.41,393.35,1017.86,393.35z"/>
			<path fill="#3FBE7B" d="M1052.95,398.71h-6.33l-6.94-11.19c-0.89-1.43-1.79-3.18-2.69-5.23c0.41,1.63,0.61,3.02,0.61,4.16v12.27
				h-6.31v-25.33h7.35l5.9,9.28c1.17,1.84,2.07,3.46,2.67,4.86c-0.4-2.16-0.59-4.38-0.59-6.64v-7.5h6.33V398.71z"/>
			<path fill="#3FBE7B" d="M1052.85,391.38l7.22-1.3c0.61,2.04,2.16,3.06,4.68,3.06c1.95,0,2.93-0.52,2.93-1.56
				c0-0.54-0.23-0.97-0.68-1.27c-0.45-0.3-1.26-0.57-2.42-0.81c-4.44-0.85-7.29-1.96-8.55-3.34c-1.26-1.37-1.89-2.99-1.89-4.84
				c0-2.39,0.91-4.37,2.72-5.96c1.81-1.58,4.42-2.38,7.82-2.38c5.16,0,8.57,2.07,10.22,6.22l-6.44,1.95
				c-0.67-1.69-2.02-2.54-4.06-2.54c-1.7,0-2.54,0.53-2.54,1.58c0,0.47,0.19,0.83,0.58,1.09c0.38,0.26,1.13,0.51,2.23,0.74
				c3.03,0.64,5.18,1.21,6.46,1.7c1.28,0.49,2.34,1.34,3.19,2.53c0.85,1.19,1.28,2.6,1.28,4.22c0,2.56-1.04,4.64-3.12,6.23
				c-2.08,1.59-4.81,2.38-8.18,2.38C1058.11,399.1,1054.3,396.53,1052.85,391.38z"/>
			<path fill="#3FBE7B" d="M1087.36,379.45v19.26h-7.37v-19.26h-5.25v-6.07h17.87v6.07H1087.36z"/>
			<path fill="#3FBE7B" d="M1115.46,398.71h-8.62l-3.7-9.69h-2.45v9.69h-7.77v-25.33h13.23c2.92,0,5.19,0.68,6.8,2.05
				c1.61,1.37,2.42,3.17,2.42,5.41c0,1.46-0.3,2.75-0.89,3.87s-1.79,2.11-3.6,2.96L1115.46,398.71z M1100.69,383.61h3.32
				c0.98,0,1.76-0.2,2.36-0.61s0.89-1.01,0.89-1.8c0-1.62-1-2.43-2.99-2.43h-3.58V383.61z"/>
			<path fill="#3FBE7B" d="M1137.78,373.39v16.77c0,3.18-0.94,5.46-2.83,6.86c-1.89,1.39-4.34,2.09-7.38,2.09
				c-3.19,0-5.75-0.67-7.69-2c-1.94-1.34-2.9-3.51-2.9-6.53v-17.18h7.9v16.27c0,1.21,0.26,2.1,0.77,2.65s1.33,0.84,2.45,0.84
				c0.94,0,1.71-0.2,2.3-0.6s0.96-0.86,1.07-1.36c0.12-0.51,0.18-1.5,0.18-2.97v-14.83H1137.78z"/>
			<path fill="#3FBE7B" d="M1153.97,389.05l7.11,0.43c-0.33,3.1-1.48,5.49-3.44,7.14c-1.96,1.66-4.37,2.49-7.23,2.49
				c-3.44,0-6.22-1.14-8.33-3.41c-2.12-2.28-3.17-5.42-3.17-9.43c0-3.97,1-7.17,3.01-9.61c2-2.44,4.8-3.66,8.39-3.66
				c3.35,0,5.93,0.93,7.73,2.78c1.8,1.86,2.82,4.32,3.05,7.38l-7.25,0.39c0-1.69-0.32-2.92-0.97-3.67
				c-0.65-0.75-1.41-1.13-2.29-1.13c-2.45,0-3.67,2.46-3.67,7.39c0,2.76,0.32,4.63,0.96,5.62c0.64,0.99,1.53,1.48,2.68,1.48
				C1152.57,393.24,1153.72,391.84,1153.97,389.05z"/>
			<path fill="#3FBE7B" d="M1172.42,379.45v19.26h-7.37v-19.26h-5.25v-6.07h17.87v6.07H1172.42z"/>
			<path fill="#3FBE7B" d="M1185.75,373.39v25.33h-7.77v-25.33H1185.75z"/>
			<path fill="#3FBE7B" d="M1199.22,399.1c-3.56,0-6.47-1.18-8.71-3.54c-2.24-2.36-3.37-5.52-3.37-9.48c0-3.78,1.07-6.91,3.22-9.38
				c2.15-2.47,5.12-3.7,8.93-3.7c3.53,0,6.4,1.16,8.62,3.49c2.22,2.33,3.33,5.43,3.33,9.31c0,4.02-1.12,7.24-3.36,9.67
				C1205.64,397.89,1202.75,399.1,1199.22,399.1z M1199.18,393.35c1.31,0,2.25-0.57,2.83-1.72c0.58-1.14,0.86-3.24,0.86-6.28
				c0-4.4-1.18-6.61-3.54-6.61c-2.55,0-3.82,2.51-3.82,7.53C1195.51,391,1196.73,393.35,1199.18,393.35z"/>
			<path fill="#3FBE7B" d="M1234.28,398.71h-6.33l-6.94-11.19c-0.89-1.43-1.79-3.18-2.69-5.23c0.41,1.63,0.61,3.02,0.61,4.16v12.27
				h-6.31v-25.33h7.35l5.9,9.28c1.17,1.84,2.07,3.46,2.67,4.86c-0.4-2.16-0.59-4.38-0.59-6.64v-7.5h6.33V398.71z"/>
		</g>
	</g>
	<g>
		<polygon fill="#FFFFFF" points="1228.18,337.65 862.35,337.65 896.17,242.35 1262,242.35 		"/>
		<g>
			<path fill="#3FBE7B" d="M905.95,315.53v-50.65h25.71c5.34,0,9.24,1.35,11.69,4.04c2.45,2.7,3.67,5.78,3.67,9.24
				c0,2.52-0.71,4.81-2.13,6.85c-1.42,2.04-3.54,3.44-6.36,4.21c6.56,1.58,9.83,5.52,9.83,11.8c0,3.76-1.16,7.12-3.47,10.07
				c-2.31,2.96-7.25,4.43-14.82,4.43H905.95z M920.28,284.28h7.2c1.81,0,3.08-0.46,3.82-1.37c0.74-0.91,1.11-1.89,1.11-2.93
				c0-2.82-1.73-4.23-5.2-4.23h-6.94V284.28z M920.28,304.25h7.57c1.88,0,3.26-0.46,4.14-1.39c0.88-0.93,1.32-1.97,1.32-3.14
				c0-1.16-0.43-2.23-1.28-3.21c-0.85-0.98-2.42-1.47-4.69-1.47h-7.05V304.25z"/>
			<path fill="#3FBE7B" d="M956.53,315.53v-50.65h19.59c8.51,0,14.88,2.52,19.11,7.57c4.23,5.05,6.34,10.88,6.34,17.51
				c0,7.57-2.27,13.72-6.81,18.46c-4.54,4.74-10.43,7.11-17.68,7.11H956.53z M972.08,303.88h4.04c2.57,0,4.74-1.25,6.51-3.75
				c1.77-2.5,2.65-5.9,2.65-10.2c0-3.69-0.79-6.86-2.36-9.54c-1.57-2.67-3.84-4.01-6.81-4.01h-4.04V303.88z"/>
			<path fill="#3FBE7B" d="M1051.46,277.01v38.52h-14.73v-38.52h-10.5v-12.13h35.73v12.13H1051.46z"/>
			<path fill="#3FBE7B" d="M1090.01,316.31c-7.12,0-12.93-2.36-17.42-7.09c-4.49-4.72-6.73-11.04-6.73-18.96
				c0-7.57,2.15-13.82,6.44-18.76s10.25-7.4,17.87-7.4c7.05,0,12.8,2.33,17.24,6.98c4.44,4.65,6.66,10.86,6.66,18.63
				c0,8.04-2.24,14.48-6.72,19.33C1102.87,313.88,1097.09,316.31,1090.01,316.31z M1089.94,304.8c2.62,0,4.51-1.14,5.66-3.43
				s1.73-6.48,1.73-12.56c0-8.81-2.36-13.21-7.09-13.21c-5.1,0-7.64,5.02-7.64,15.06C1082.59,300.09,1085.04,304.8,1089.94,304.8z"
				/>
			<path fill="#3FBE7B" d="M1144.27,316.31c-7.12,0-12.93-2.36-17.42-7.09c-4.49-4.72-6.73-11.04-6.73-18.96
				c0-7.57,2.15-13.82,6.44-18.76s10.25-7.4,17.87-7.4c7.05,0,12.8,2.33,17.24,6.98c4.44,4.65,6.66,10.86,6.66,18.63
				c0,8.04-2.24,14.48-6.72,19.33C1157.12,313.88,1151.34,316.31,1144.27,316.31z M1144.19,304.8c2.62,0,4.51-1.14,5.66-3.43
				s1.73-6.48,1.73-12.56c0-8.81-2.36-13.21-7.09-13.21c-5.1,0-7.64,5.02-7.64,15.06C1136.84,300.09,1139.29,304.8,1144.19,304.8z"
				/>
			<path fill="#3FBE7B" d="M1219.93,315.53h-12.65l-13.87-22.38c-1.78-2.87-3.58-6.36-5.39-10.46c0.82,3.27,1.22,6.04,1.22,8.31
				v24.53h-12.62v-50.65h14.69l11.8,18.55c2.35,3.69,4.13,6.93,5.34,9.72c-0.79-4.33-1.19-8.76-1.19-13.28v-14.99h12.65V315.53z"/>
		</g>
	</g>
</g>
<g id="Layer_2">
	<g>
		<path fill="#FFFFFF" d="M210.81,93.92c1.21-0.17,2.41-0.53,3.64-0.46c3.72,1.99,7.48,4.07,10.34,7.23
			c3.3,2.77,5.98,6.16,8.19,9.85c0.42,1.65,0.25,3.38,0.33,5.08c1.49,0.39,3,0.71,4.54,0.87c2.13,0.15,3.87,1.53,5.88,2.11
			c1.59-0.05,3.16-0.41,4.76-0.43c1.73,0.46,3.44,1.19,5.27,0.8c0.29-0.92,0.57-1.85,0.85-2.78c-1.31-2.44-2.75-4.8-4.12-7.2
			c0.71-1.04,1.42-2.09,2.13-3.12c3.2-1.12,6.38,0.95,8.33,3.34c1.15,2.23,2.52,4.52,2.53,7.11c0.17,2.16,0.04,4.35,0.49,6.48
			c1.25,2.05,2.83,3.88,4.19,5.86c1.39,2.13,3.66,3.39,5.63,4.91c4,3.26,9.03,4.88,13.99,6.02c2.62,0.8,5.16-0.76,7.66-1.39
			c0.93-1.77,1.91-3.51,2.86-5.26c-1.71-3.76-1.73-8.84,2.03-11.37c1.26,0.16,2.62-0.07,3.83,0.39c3.26,2.9,4.37,7.26,6.22,11.05
			c1.45,3.53,3.31,6.92,4.52,10.55c-0.35,3.37-1.87,6.63-1.43,10.06c0.51,5.76,0.92,11.53,1.46,17.3c0.44,3.58-0.56,7.1-0.94,10.63
			c-0.46,3.86-1.74,8.06,0.23,11.71c0.86,1.66,3,1.14,4.52,1.54c4.61,1.17,9.23,2.39,13.67,4.14c7.12,2.67,14.47,4.68,22.03,5.55
			c5.03,1.35,10.14-0.02,15.22-0.03c4.24-0.1,8.44,0.81,12.69,0.51c12.66-0.7,25.34-1.43,38.02-1.23
			c4.99,1.29,10.03,3.01,15.27,2.58c12.88-1.04,25.8-1.8,38.72-1.93c3.81,1.37,7.54,2.99,11.25,4.64
			c6.52,4.03,13.42,7.73,18.82,13.27c1.27,1.76,1.19,3.91,0.44,5.86c-2.39,1.87-5.72,1.89-8.44,0.75c-2.53-0.99-5.07-1.95-7.6-2.93
			c-0.55,0.38-1.11,0.76-1.65,1.15c-0.01,3.27,0.65,6.66-0.46,9.83c-1.93,6.96-4.97,13.53-7.35,20.34c-1.06,3.05-0.1,7.46-3.49,9.23
			c-2.82,0.79-6.19,0.03-8.64,1.97c-2.29,3.36-3.67,7.26-4.86,11.13c-0.21,1.39-1.61,1.94-2.55,2.77c-1.81-0.94-3.54-2.06-5.46-2.75
			c-4.96,0.15-10.01,2.25-12.93,6.4c-0.99,1.61-2.73,2.47-4.54,2.78c-3.68,0.23-7.44-1.15-11.05-0.21
			c-1.71,1.61-1.61,4.37-2.92,6.26c-2.22,2.57-4.91,4.71-7,7.38c-1.61,5.7-2.51,11.59-4.38,17.22c-1.11,2.98-0.78,6.22-0.3,9.29
			c1.9,5.4,4.3,10.63,6.16,16.06c1.49,6.47,2.73,12.99,4.15,19.48c0.35,1.95,1.9,3.66,3.9,3.98c-0.01-3.35-0.04-6.7,0.21-10.05
			c0.7-0.45,1.41-0.88,2.14-1.29c0.85,0.39,1.77,0.68,2.55,1.21c2.59,3.34,3.64,7.51,5.01,11.43c0.55,1.76,1.93,3.06,3.24,4.28
			c7.1,3.64,17.46-3.64,15.48-11.68c-0.57-3.52-0.98-7.09-0.89-10.67c0.61-2.03,1.5-3.99,2.56-5.82c2.89-3.29,6.6-5.78,9.42-9.11
			c1.51-1.8,0.94-4.19,0.76-6.3c-0.41-3.31-0.31-6.64-0.21-9.96c2.05-0.37,4.15-0.52,6.16,0.17c3.7,1.37,6.11-3.28,9.79-3.04
			c0.85,1.22,1.67,2.47,2.55,3.68c1.4-0.2,2.81-0.4,4.22-0.6c1.54,7.24,2.91,14.52,4.77,21.69c0.58,2.65,1.58,5.26,1.53,8.01
			c0.01,9.48,0.26,19,1.96,28.36c0.53,1.27,1.71,2.13,2.39,3.32c2.82,5.08,4.13,10.81,6.82,15.95c0.77,4.52,0.88,9.13,1.64,13.66
			c2.21,10.51,2.17,21.31,3.2,31.98c0.09,4.08,1.28,8.01,1.75,12.04c0.29,11.79-0.27,23.62,0.81,35.39
			c0.58,3.84,2.09,7.48,2.56,11.33c0.56,2.55-2.09,4.66-4.4,4.94c-0.67-1.41-1.27-2.86-2.11-4.16c-4.22-4.22-10.49-5.32-14.82-9.36
			c-1.51,0.39-3.31,0.39-4.41,1.65c-2.94,2.74-5.98,5.96-6.32,10.15c0.35,4.18,1.09,8.32,2.25,12.35c0.67,1.99,2.81,3.03,3.64,4.91
			c0.29,4.3,1.11,8.57,2.69,12.59c1.01,2.53,1.27,5.26,1.63,7.94c-1.66,0.11-2.07-1.67-2.86-2.71c-2.39-3.74-4.28-7.74-6.29-11.68
			c-3.05-4.9-6.53-9.53-9.68-14.37c-0.59-0.87-0.6-1.97-0.76-2.95c-0.87-7.35-1.81-14.68-2.72-22.02c-0.52-4.86-0.1-9.77-0.51-14.62
			c-1.99-5.24-4.68-10.19-6.68-15.42c-1.63-6.82-2.92-13.73-4.5-20.56c-0.49-2.03-1.44-3.94-1.74-6.01c0.8-3.12,2.42-6.04,2.62-9.31
			c-1.75,1.19-3.2,2.75-4.68,4.24c-1.35-2.51-2.73-4.98-4.04-7.5c-1.93-3.68-2.59-8.01-5.42-11.17
			c-4.62-6.54-10.46-12.47-13.07-20.2c-0.16-2.08-0.13-4.16-0.16-6.24c-1.79,2.05-3.17,4.4-4.98,6.43c-2.75,2.4-6.2,3.93-8.64,6.7
			c-2.92,3.1-5.8,6.64-10.21,7.54c-4.84,0.55-9.71,0.93-14.57,1.31c-3.75-4.7-8.64-8.62-10.91-14.35c-2.81-5.4-5.6-10.82-8.44-16.21
			c-1.34-2.46-2.28-5.14-2.8-7.88c0.2-4.5,1.1-8.95,1.39-13.45c-0.49-4.7-2.19-9.21-2.74-13.91c-0.05-3.77,0.21-7.59-0.97-11.24
			c-2.78,0.85-2.98,4.08-2.63,6.5c0.41,2.26-0.09,4.51-0.58,6.72c-6.88-0.15-13.68-1.13-20.4-2.53c2.91,2.14,5.58,4.62,8.6,6.61
			c3.06,0.87,6.28,1.08,9.4,1.76c1.55,2.11,3.38,4.01,4.76,6.24c0.89,3.38,0.65,6.92,0.35,10.36c-2.89,2.31-5.84,4.54-9.19,6.11
			c0.5,2.11,0.21,4.65,1.83,6.34c1.46,1.71,2.98,3.38,4.31,5.22c-2.41,1.1-6.38,0.43-7.28,3.53c-1.01,1.95-1.09,4.17-1.07,6.32
			c-0.36,2.46,1.69,4.2,2.72,6.22c1.57,2.49,2.09,5.5,1.07,8.32c3.21,3.38,5.39,7.53,7.55,11.61c0.81,2.57,2.01,5.32,1.1,8.01
			c-0.75,2.49-0.75,5.4-2.67,7.37c-1.99,2.49-5.07,3.74-7.16,6.14c-2.69,2.87-5.65,5.51-8.22,8.5c-1.95,3.7-3.14,7.76-5.08,11.47
			c-1.27,1.81-2.55,3.65-4.12,5.21c-1.63,0.5-3.32,0.71-4.99,1.06c-1.78-2.19-4.05-3.86-6.38-5.42c-0.2-3.72-0.31-7.8,1.92-10.99
			c2.59-3.18,5.2-6.36,7.8-9.54c-6.95,1.35-12.23,6.38-18.04,10.04c-2.9-7.02-5.52-14.64-4.15-22.31c1.94-3.9,4.14-7.66,6.12-11.53
			c-2.14,1.86-4.42,3.56-6.56,5.43c-0.89,0.76-0.93,2.05-1.31,3.08c-0.47,2.09-1.41,4.15-1.17,6.34c0.19,2.13,0.51,4.24,0.65,6.37
			c0.13,4.59-1.25,9.03-2.87,13.28c-0.72,2.72-2.7,4.79-4.46,6.88c-1.91,1.78-4.67,2.25-6.72,3.84c-1.21,1.51-1.86,3.4-3.14,4.88
			c-1.28,1.25-2.71,2.35-4.1,3.46c0.27-13.13-3.72-25.79-5.96-38.6c-0.62,2.03-1.23,4.18-0.69,6.31c1.25,7.1,2.92,14.38,1.57,21.59
			c-1.45,2.93-2.53,6.2-4.94,8.53c-1.76,1.77-3.32,3.74-5.13,5.46c-2.8,1.05-6.22,1.91-8.83-0.06c-3.87-3.19-6.96-7.22-9.85-11.29
			c-0.75-3.82-0.41-7.8-1.27-11.6c-0.59-2.25-1.98-4.33-1.84-6.72c0.13-5.32,0.66-10.87-1.21-15.98c-1.53-4.78-2.94-9.61-4.48-14.39
			c-1.06-3.26-2.61-6.34-3.59-9.61c0.48-4.73-0.83-9.36-1.31-14.04c-0.37-3.92-2.34-7.46-2.93-11.34c-0.31-2.15-0.79-4.3-0.83-6.48
			c1.64-3.8,3.6-7.47,5.44-11.17c-1.09-0.91-2.17-1.99-3.63-2.18c-3.74-0.77-7.4-1.85-10.98-3.14c-0.49-0.99-0.97-1.97-1.44-2.95
			c0.84-3.74,1.8-7.46,2.6-11.21c-3-5.46-9.09-8.63-11.07-14.7c-0.44-1.53-1.53-3.08-0.99-4.7c2.27-7.26,4.91-14.4,7.89-21.4
			c2.74-6.06,2.45-12.87,3.45-19.32c0.35-1.69-0.14-3.37-0.44-5.02c-2.02-1.28-3.85-2.86-5.98-3.94c-4.12-1.09-8.62-0.77-12.49-2.73
			c-2.36-1.16-5.14-1.9-6.62-4.26c-1.53-2.23-3.63-3.92-6.06-5.08c-1.52,0.47-3.02,0.99-4.54,1.47c-1.93-0.67-3.92-1.19-5.74-2.1
			c-3.58-3.1-6.32-7-8.76-11.03c0.47-2.77,1.02-5.57,2.23-8.12c2.29-4.83,4.59-9.65,6.86-14.49c4.34-1.57,7.49,3.38,11.81,2.61
			c1.5-2.73,3.82-5,4.76-8.02c1.77-5.36,3.54-10.71,5.36-16.06c4.71,0.08,9.43-0.04,14.13,0.48c3.14,0.17,6.22,1.43,9.39,0.79
			c3.47-0.57,7.4-1,9.97-3.67c0.89-0.95,1.41-2.17,2.06-3.28c-0.21-0.74-0.46-1.47-0.73-2.19c-2.2-1.67-5.04-2.33-7.08-4.23
			c-3.6-2.89-1.75-8.88-5.62-11.56c-4.2-0.41-8.48,0.09-12.63-0.64c-3.42-1.55-6.94-3.18-9.57-5.94c-3.23-3.92-5.07-8.95-9.11-12.19
			c-1.81-1.54-3.41-3.32-5.32-4.74c-3.16-1.37-7.22-0.81-9.73-3.57c-3.5-3.31-2.12-8.61-0.28-12.42c1.35-2.44,1.73-5.23,2.77-7.79
			c3.1-4.16,6.52-8.12,10.59-11.37c2.97-2.23,4.55-5.69,7.22-8.2c1.44-1.49,3.41-2.96,3.26-5.29c-0.07-3.66-3.86-5.46-6.84-6.49
			C208.71,98.19,210.16,96.06,210.81,93.92z"/>
		<path fill="#FFFFFF" d="M365.88,372.54c1.05-0.62,2.11-1.23,3.17-1.83c2.25,2.83,4.99,5.48,5.84,9.13
			C371.27,378.31,367.7,376.2,365.88,372.54z"/>
		<path fill="#FFFFFF" d="M363.57,386.26c2.25-0.75,4.5-1.49,6.77-2.2c1.8,1.38,3.83,2.49,5.44,4.09c1.41,2.92,1.24,6.36,2.73,9.26
			c2.41,6.2,7.76,10.51,11.21,16.05c0.44,7.69-1.45,15.22-2.33,22.83c-0.19,3-2.62,5.1-4.08,7.54c-4.11,0.81-8.17,1.9-12.3,2.59
			c-2.21-0.01-4.39-0.46-6.58-0.71c3.76-6.84,8-13.41,11.72-20.26c0.19-5.5-0.33-11.07-2.19-16.28c-1.79-2.17-4-3.96-5.94-5.99
			c-0.13-1.43-0.19-2.87-0.45-4.27c-0.77-2.34-2.26-4.38-2.81-6.8C364.3,390.17,363.95,388.22,363.57,386.26z"/>
		<path fill="#FFFFFF" d="M428.6,414.11c1.07-3.68,0.83-7.91,3.12-11.13c1.25,1.67,2.36,3.46,3.11,5.41
			c1.72,4.22,3.74,8.41,4.29,12.98c-1.18,0.71-2.3,1.49-3.46,2.23C431.69,421.9,430.67,417.48,428.6,414.11z"/>
		<path fill="#FFFFFF" d="M404.85,410.75c2.87,5.8,6.42,11.53,7.06,18.12c-0.39,2.83-1.28,5.58-1.88,8.38
			c-2.57,1.79-5.1,3.62-7.66,5.41C403.16,432.01,404,421.38,404.85,410.75z"/>
		<path fill="#FFFFFF" d="M460.32,455.76c4.05,4.05,0.77,9.75-1.17,13.99c-0.56-2-1.59-4.06-1.01-6.16
			C458.56,460.91,459.18,458.24,460.32,455.76z"/>
		<path fill="#FFFFFF" d="M460.56,472.85c1.83-0.54,3.7-1.04,5.64-1.01c0.93,2.91,1.71,5.9,1.85,8.97
			c-0.15,2.53-0.55,5.05-0.84,7.57c-1.44,0.14-2.89,0.27-4.32,0.42c-0.74-0.78-1.47-1.57-2.19-2.36
			C462.61,482.08,460.56,477.37,460.56,472.85z"/>
	</g>
	<g>
		
			<path fill="#3FBE7B" stroke="#FFFFFF" stroke-width="7" stroke-linecap="round" stroke-linejoin="round" stroke-miterlimit="10" d="
			M346.98,242.73c0,7.5-1.79,13.98-5.38,19.44c-3.04,4.59-6.84,7.84-11.38,9.75c2.92,1.25,5.29,3.31,7.13,6.19
			c1.83,2.88,2.75,5.94,2.75,9.19c0,8.09-4.31,14.01-12.94,17.76c-6.67,2.92-15.42,4.38-26.26,4.38c-9.34,0-19.36-0.77-30.07-2.31
			c-0.29-9.71-0.9-25.55-1.81-47.52c-0.62-11.8-1.56-27.97-2.81-48.52c7.92-1.54,17.94-2.31,30.07-2.31
			C330.07,208.78,346.98,220.09,346.98,242.73z M319.47,284.18c0-4.83-3.46-7.25-10.38-7.25c-0.71,0-1.44,0.04-2.19,0.12
			l-0.38,15.32C315.15,292.75,319.47,290.02,319.47,284.18z M321.53,254.48c0-3.21-1.29-5.67-3.88-7.38
			c-2.33-1.54-5.4-2.27-9.19-2.19l-0.94,18.82C316.86,264.07,321.53,260.98,321.53,254.48z"/>
		
			<path fill="#3FBE7B" stroke="#FFFFFF" stroke-width="7" stroke-linecap="round" stroke-linejoin="round" stroke-miterlimit="10" d="
			M453.29,259.86c0,15.05-4.67,26.89-14.01,35.51c-9.63,8.96-23.2,13.44-40.7,13.44c-11.25,0-19.94-0.56-26.07-1.69l-1.69-46.46
			c-0.54-11.92-1.52-28.36-2.94-49.33c9.04-1.29,18.49-1.94,28.32-1.94c17.55,0,31.28,4.09,41.2,12.25
			C447.99,230.41,453.29,243.14,453.29,259.86z M427.65,267.55c0-6.13-1.98-10.65-5.94-13.57c-3.29-2.42-7.5-3.52-12.63-3.31
			l-0.88,39.2c5.33-0.33,9.69-2.06,13.07-5.19C425.53,280.8,427.65,275.09,427.65,267.55z"/>
		
			<path fill="#3FBE7B" stroke="#FFFFFF" stroke-width="7" stroke-linecap="round" stroke-linejoin="round" stroke-miterlimit="10" d="
			M264.91,319.93l-1.81,39.33c-1.63-0.25-4.23-0.56-7.82-0.94c-2.21-0.12-5.79-0.25-10.75-0.38c-0.25,2.46-0.69,8.4-1.31,17.82
			c-0.46,9.13-1.21,22.53-2.25,40.2H210.7c-0.33-8.42-0.96-21.65-1.88-39.7c-0.42-6.25-0.85-12.36-1.31-18.32l-9.88,0.38l-8.94,0.94
			l-1.56-39.33H264.91z"/>
		
			<path fill="#3FBE7B" stroke="#FFFFFF" stroke-width="7" stroke-linecap="round" stroke-linejoin="round" stroke-miterlimit="10" d="
			M369.21,365.89c0,14.71-3.79,27.16-11.38,37.33c-7.96,10.63-18.15,15.94-30.57,15.94c-12.8,0-23.16-5.36-31.07-16.07
			c-7.46-10.09-11.19-22.49-11.19-37.2c0-15.71,4.06-28.05,12.19-37.01c7.67-8.42,17.69-12.63,30.07-12.63
			c12.17,0,22.09,4.23,29.76,12.69C365.15,337.94,369.21,350.26,369.21,365.89z M339.14,376.89c0-11.59-3.92-17.38-11.75-17.38
			c-7.63,0-11.44,5.84-11.44,17.51c0,4.67,1,9.03,3,13.07c2.25,4.54,5.02,6.82,8.32,6.82c3.21,0,6.04-2.31,8.5-6.94
			C338.01,385.75,339.14,381.39,339.14,376.89z"/>
		
			<path fill="#3FBE7B" stroke="#FFFFFF" stroke-width="7" stroke-linecap="round" stroke-linejoin="round" stroke-miterlimit="10" d="
			M474.59,365.89c0,14.71-3.79,27.16-11.38,37.33c-7.96,10.63-18.15,15.94-30.57,15.94c-12.8,0-23.16-5.36-31.08-16.07
			c-7.46-10.09-11.19-22.49-11.19-37.2c0-15.71,4.06-28.05,12.19-37.01c7.67-8.42,17.69-12.63,30.08-12.63
			c12.17,0,22.09,4.23,29.76,12.69C470.52,337.94,474.59,350.26,474.59,365.89z M444.51,376.89c0-11.59-3.92-17.38-11.75-17.38
			c-7.63,0-11.44,5.84-11.44,17.51c0,4.67,1,9.03,3,13.07c2.25,4.54,5.02,6.82,8.32,6.82c3.21,0,6.04-2.31,8.5-6.94
			C443.39,385.75,444.51,381.39,444.51,376.89z"/>
		
			<path fill="#3FBE7B" stroke="#FFFFFF" stroke-width="7" stroke-linecap="round" stroke-linejoin="round" stroke-miterlimit="10" d="
			M572.95,319.93c-0.58,8.42-1.4,23.11-2.44,44.08c-0.63,15.42-1.15,33.16-1.56,53.21c-5.46-4.29-13.78-10.69-24.95-19.2
			c-4.84-3.38-12.05-8.44-21.63-15.19l-0.62,33.14h-20.13c-0.33-8.46-1.1-24.43-2.31-47.89c-1.04-19.01-2.11-35.05-3.19-48.14h31.39
			l23.26,22.01c0-5.04-0.08-9-0.25-11.88c-0.12-2.54-0.38-5.92-0.75-10.13H572.95z"/>
	</g>
	<g>
	</g>
	<g>
	</g>
	<g>
	</g>
	<g>
	</g>
	<g>
	</g>
	<g>
	</g>
	<g>
	</g>
	<g>
	</g>
	<g>
	</g>
	<g>
	</g>
	<g>
	</g>
	<g>
	</g>
	<g>
	</g>
	<g>
	</g>
	<g>
	</g>
</g>
</svg>
